<svg xmlns="http://www.w3.org/2000/svg" width="62" height="62" viewBox="0 0 62 62">
  <g id="experiencia-icon" transform="translate(-86.008 -1846)">
    <circle id="Ellipse_113" data-name="Ellipse 113" cx="31" cy="31" r="31" transform="translate(86.008 1846)" fill="#fff"/>
    <g id="me-gusta" transform="translate(90.333 1856)">
      <path id="Path_398" data-name="Path 398" d="M45.474,27.975a5.111,5.111,0,0,0,1.2-3.416,5.248,5.248,0,0,0-1.119-2.96,4.6,4.6,0,0,0-1.093-5.292c-1.368-1.248-3.692-1.807-6.91-1.652a27,27,0,0,0-4.234.542h-.009c-.43.077-.886.172-1.351.275a15.012,15.012,0,0,1,1.076-5c1.2-3.666,1.136-6.471-.224-8.347A5.47,5.47,0,0,0,28.428,0a2.161,2.161,0,0,0-1.661.757c-.955,1.11-.843,3.158-.723,4.1-1.136,3.046-4.32,10.515-7.013,12.589a.921.921,0,0,0-.138.12,9.244,9.244,0,0,0-1.687,2.53,3.551,3.551,0,0,0-1.7-.43H10.255a3.582,3.582,0,0,0-3.58,3.58V37.233a3.582,3.582,0,0,0,3.58,3.58H15.5a3.572,3.572,0,0,0,2.065-.654l2.022.241a86.638,86.638,0,0,0,11.47.628c1.024.077,1.988.12,2.883.12a19.307,19.307,0,0,0,4-.361c2.633-.559,4.432-1.678,5.344-3.321a5.267,5.267,0,0,0,.585-3.3A5.489,5.489,0,0,0,45.827,29.7,5.813,5.813,0,0,0,45.474,27.975ZM10.255,38.49A1.258,1.258,0,0,1,9,37.233V23.242a1.258,1.258,0,0,1,1.256-1.256H15.5a1.258,1.258,0,0,1,1.256,1.256V37.225A1.258,1.258,0,0,1,15.5,38.481H10.255ZM43.272,26.968a1.156,1.156,0,0,0-.155,1.4,3.58,3.58,0,0,1,.4,1.437,3.443,3.443,0,0,1-1.618,2.977,1.172,1.172,0,0,0-.4,1.325,3.039,3.039,0,0,1-.232,2.22c-.577,1.033-1.859,1.773-3.8,2.186a22.669,22.669,0,0,1-6.273.189h-.12a84.937,84.937,0,0,1-11.186-.611h-.009l-.869-.1a3.646,3.646,0,0,0,.077-.757V23.242a3.64,3.64,0,0,0-.163-1.067,7.192,7.192,0,0,1,1.6-2.951c3.864-3.063,7.641-13.4,7.8-13.845a1.089,1.089,0,0,0,.052-.577,5.377,5.377,0,0,1,.112-2.5,3.087,3.087,0,0,1,2.427,1.162c.878,1.213.843,3.382-.1,6.256-1.446,4.38-1.566,6.686-.422,7.7a1.875,1.875,0,0,0,1.876.336c.525-.12,1.024-.224,1.5-.3l.112-.026c2.642-.577,7.374-.929,9.018.568a2.476,2.476,0,0,1,.293,3.141,1.151,1.151,0,0,0,.207,1.5,3.26,3.26,0,0,1,.955,2A3.2,3.2,0,0,1,43.272,26.968Z" transform="translate(0 0)" fill="#39b54a"/>
    </g>
  </g>
</svg>
