<svg xmlns="http://www.w3.org/2000/svg" width="48" height="48" viewBox="0 0 48 48">
  <g id="header_ins-icon" transform="translate(-183 -3100)">
    <circle id="Ellipse_118" data-name="Ellipse 118" cx="24" cy="24" r="24" transform="translate(183 3100)" fill="#f5f5f5"/>
    <g id="instagram" transform="translate(195 3112)">
      <g id="Group_54" data-name="Group 54">
        <g id="Group_53" data-name="Group 53">
          <path id="Path_400" data-name="Path 400" d="M16.5,0h-9A7.5,7.5,0,0,0,0,7.5v9A7.5,7.5,0,0,0,7.5,24h9A7.5,7.5,0,0,0,24,16.5v-9A7.5,7.5,0,0,0,16.5,0Zm5.25,16.5a5.256,5.256,0,0,1-5.25,5.25h-9A5.256,5.256,0,0,1,2.25,16.5v-9A5.256,5.256,0,0,1,7.5,2.25h9A5.256,5.256,0,0,1,21.75,7.5Z"/>
        </g>
      </g>
      <g id="Group_56" data-name="Group 56" transform="translate(6 6)">
        <g id="Group_55" data-name="Group 55">
          <path id="Path_401" data-name="Path 401" d="M134,128a6,6,0,1,0,6,6A6,6,0,0,0,134,128Zm0,9.75a3.75,3.75,0,1,1,3.75-3.75A3.755,3.755,0,0,1,134,137.75Z" transform="translate(-128 -128)"/>
        </g>
      </g>
      <g id="Group_58" data-name="Group 58" transform="translate(17.651 4.751)">
        <g id="Group_57" data-name="Group 57">
          <circle id="Ellipse_123" data-name="Ellipse 123" cx="0.799" cy="0.799" r="0.799"/>
        </g>
      </g>
    </g>
  </g>
</svg>
