<svg id="instagram" xmlns="http://www.w3.org/2000/svg" width="37.333" height="37.333" viewBox="0 0 37.333 37.333">
  <g id="Group_54" data-name="Group 54">
    <g id="Group_53" data-name="Group 53">
      <path id="Path_400" data-name="Path 400" d="M25.667,0h-14A11.668,11.668,0,0,0,0,11.667v14A11.668,11.668,0,0,0,11.667,37.333h14A11.668,11.668,0,0,0,37.333,25.667v-14A11.668,11.668,0,0,0,25.667,0Zm8.167,25.667a8.176,8.176,0,0,1-8.167,8.167h-14A8.176,8.176,0,0,1,3.5,25.667v-14A8.176,8.176,0,0,1,11.667,3.5h14a8.176,8.176,0,0,1,8.167,8.167Z"/>
    </g>
  </g>
  <g id="Group_56" data-name="Group 56" transform="translate(9.333 9.333)">
    <g id="Group_55" data-name="Group 55">
      <path id="Path_401" data-name="Path 401" d="M137.333,128a9.333,9.333,0,1,0,9.333,9.333A9.334,9.334,0,0,0,137.333,128Zm0,15.167a5.833,5.833,0,1,1,5.833-5.833A5.841,5.841,0,0,1,137.333,143.167Z" transform="translate(-128 -128)"/>
    </g>
  </g>
  <g id="Group_58" data-name="Group 58" transform="translate(27.456 7.39)">
    <g id="Group_57" data-name="Group 57">
      <circle id="Ellipse_123" data-name="Ellipse 123" cx="1.244" cy="1.244" r="1.244"/>
    </g>
  </g>
</svg>
