<svg xmlns="http://www.w3.org/2000/svg" width="35" height="42.955" viewBox="0 0 35 42.955">
  <path id="security-icon" d="M33.636,21.25V12.977a11.138,11.138,0,0,0-22.273,0V21.25A8,8,0,0,0,5,29.045V37a7.877,7.877,0,0,0,7.955,7.955H32.045A7.877,7.877,0,0,0,40,37V29.045A8,8,0,0,0,33.636,21.25Zm-3.659,8.909-6.364,6.364a1.538,1.538,0,0,1-2.227,0L18.2,33.341a1.575,1.575,0,0,1,2.227-2.227L22.5,33.182l5.25-5.25a1.575,1.575,0,0,1,2.227,2.227Zm.477-9.068H14.545V12.977a7.956,7.956,0,0,1,15.909,0Z" transform="translate(-5 -2)" fill="#39b54a"/>
</svg>
