<svg xmlns="http://www.w3.org/2000/svg" width="37.333" height="37.513" viewBox="0 0 37.333 37.513">
  <path id="whatsapp" d="M32.144,5.452A18.593,18.593,0,0,0,2.887,27.88L.25,37.513,10.1,34.928a18.569,18.569,0,0,0,8.883,2.263h.008A18.6,18.6,0,0,0,32.144,5.452Zm-13.149,28.6h-.006A15.431,15.431,0,0,1,11.125,31.9l-.564-.335L4.713,33.1l1.561-5.7-.367-.585a15.45,15.45,0,1,1,13.088,7.24ZM27.469,22.48c-.464-.233-2.748-1.356-3.174-1.511s-.735-.232-1.045.233-1.2,1.511-1.471,1.821-.542.349-1.006.116a12.686,12.686,0,0,1-3.735-2.305,14.01,14.01,0,0,1-2.584-3.217c-.271-.465,0-.692.2-.948a13.138,13.138,0,0,0,1.161-1.589.854.854,0,0,0-.039-.814c-.116-.232-1.045-2.519-1.432-3.449-.377-.905-.76-.783-1.045-.8s-.58-.016-.89-.016a1.706,1.706,0,0,0-1.239.581,5.209,5.209,0,0,0-1.625,3.875,9.035,9.035,0,0,0,1.9,4.8c.232.31,3.275,5,7.934,7.013a26.586,26.586,0,0,0,2.648.979,6.367,6.367,0,0,0,2.925.184c.892-.133,2.748-1.124,3.135-2.209a3.881,3.881,0,0,0,.271-2.209c-.116-.194-.426-.31-.89-.542Zm0,0" transform="translate(-0.25)" fill-rule="evenodd"/>
</svg>
